# xmcd CD database file
#
# Track frame offsets:
#	187
#	19452
#	42200
#	62647
#	82412
#	101110
#	129600
#	150787
#	167977
#	187725
#	207700
#	227155
#	244635
#
# Disc length: 3514 seconds
#
# Revision: 0
# Processed by: cddbd v1.5.1PL0 Copyright (c) Steve Scherf et al.
# Submitted via: CDex 1.51
#
DISCID=b10db80d
DTITLE=伊藤銀次 - 伊藤銀次／ベスト・セレクション 春・夏編
DYEAR=1900
DGENRE=J-pop
TTITLE0=ＢＡＢＹ　ＢＬＵＥ
TTITLE1=愛をあきらめないで
TTITLE2=雨のテラス
TTITLE3=いつでもここにいる
TTITLE4=ワン・サマー・ナイト
TTITLE5=サンタ・カタリナ島にて
TTITLE6=夜を駆けぬけて
TTITLE7=彼女のミステイク
TTITLE8=ＴＡＰＰＩＮ’　＆　ＣＬＡＰＰＩＮ
TTITLE9=トワイライト・シンフォニー
TTITLE10=恋の予感
TTITLE11=ちがうんだよ
TTITLE12=ＳＨＡＤＥ　ＯＦ　ＳＵＭＭＥＲ
EXTD=
EXTT0=
EXTT1=
EXTT2=
EXTT3=
EXTT4=
EXTT5=
EXTT6=
EXTT7=
EXTT8=
EXTT9=
EXTT10=
EXTT11=
EXTT12=
PLAYORDER=
